<svg xmlns="http://www.w3.org/2000/svg" width="181.94" height="35" viewBox="0 0 181.94 35"><rect class="svg__rect" x="0" y="0" width="181.94" height="35" fill="#F4E3C6"/><rect class="svg__rect" x="181.94" y="0" width="0" height="35" fill="#389AD5"/><path class="svg__text" d="M19.57 22L14.22 22L14.22 13.47L15.70 13.47L15.70 20.82L19.57 20.82L19.57 22ZM29.28 22L23.70 22L23.70 13.47L29.23 13.47L29.23 14.66L25.18 14.66L25.18 17.02L28.68 17.02L28.68 18.19L25.18 18.19L25.18 20.82L29.28 20.82L29.28 22ZM35.15 14.66L32.52 14.66L32.52 13.47L39.28 13.47L39.28 14.66L36.62 14.66L36.62 22L35.15 22L35.15 14.66ZM42.61 19.42L42.61 19.42L44.09 19.42Q44.09 20.15 44.57 20.55Q45.05 20.95 45.95 20.95L45.95 20.95Q46.72 20.95 47.11 20.63Q47.50 20.32 47.50 19.80L47.50 19.80Q47.50 19.24 47.10 18.94Q46.71 18.63 45.68 18.32Q44.64 18.01 44.04 17.63L44.04 17.63Q42.87 16.90 42.87 15.72L42.87 15.72Q42.87 14.69 43.71 14.02Q44.55 13.35 45.89 13.35L45.89 13.35Q46.78 13.35 47.48 13.68Q48.18 14.01 48.58 14.61Q48.98 15.22 48.98 15.96L48.98 15.96L47.50 15.96Q47.50 15.29 47.08 14.91Q46.66 14.54 45.88 14.54L45.88 14.54Q45.15 14.54 44.75 14.85Q44.35 15.16 44.35 15.71L44.35 15.71Q44.35 16.18 44.79 16.50Q45.22 16.81 46.22 17.10Q47.21 17.40 47.81 17.78Q48.42 18.16 48.70 18.65Q48.98 19.13 48.98 19.79L48.98 19.79Q48.98 20.86 48.16 21.49Q47.35 22.12 45.95 22.12L45.95 22.12Q45.02 22.12 44.24 21.77Q43.47 21.43 43.04 20.83Q42.61 20.22 42.61 19.42ZM53.14 19.16L53.14 19.16L53.14 13.47L54.61 13.47L54.61 19.18Q54.61 20.03 55.05 20.48Q55.48 20.93 56.32 20.93L56.32 20.93Q58.03 20.93 58.03 19.13L58.03 19.13L58.03 13.47L59.51 13.47L59.51 19.17Q59.51 20.53 58.64 21.32Q57.77 22.12 56.32 22.12L56.32 22.12Q54.86 22.12 54.00 21.33Q53.14 20.55 53.14 19.16ZM65.56 22L64.08 22L64.08 13.47L65.56 13.47L69.38 19.54L69.38 13.47L70.85 13.47L70.85 22L69.37 22L65.56 15.95L65.56 22ZM77.15 22L75.68 22L75.68 13.47L77.15 13.47L77.15 22ZM84.26 22L81.20 13.47L82.82 13.47L84.97 20.14L87.14 13.47L88.77 13.47L85.70 22L84.26 22ZM98.29 22L92.72 22L92.72 13.47L98.25 13.47L98.25 14.66L94.20 14.66L94.20 17.02L97.70 17.02L97.70 18.19L94.20 18.19L94.20 20.82L98.29 20.82L98.29 22ZM103.97 22L102.49 22L102.49 13.47L105.49 13.47Q106.97 13.47 107.77 14.13Q108.57 14.79 108.57 16.05L108.57 16.05Q108.57 16.90 108.16 17.48Q107.74 18.06 107.01 18.37L107.01 18.37L108.92 21.92L108.92 22L107.33 22L105.62 18.71L103.97 18.71L103.97 22ZM103.97 14.66L103.97 17.52L105.49 17.52Q106.24 17.52 106.67 17.15Q107.09 16.77 107.09 16.11L107.09 16.11Q107.09 15.43 106.70 15.05Q106.31 14.68 105.54 14.66L105.54 14.66L103.97 14.66ZM112.53 19.42L112.53 19.42L114.01 19.42Q114.01 20.15 114.49 20.55Q114.97 20.95 115.87 20.95L115.87 20.95Q116.64 20.95 117.03 20.63Q117.42 20.32 117.42 19.80L117.42 19.80Q117.42 19.24 117.03 18.94Q116.63 18.63 115.60 18.32Q114.57 18.01 113.96 17.63L113.96 17.63Q112.80 16.90 112.80 15.72L112.80 15.72Q112.80 14.69 113.64 14.02Q114.48 13.35 115.82 13.35L115.82 13.35Q116.71 13.35 117.41 13.68Q118.10 14.01 118.50 14.61Q118.90 15.22 118.90 15.96L118.90 15.96L117.42 15.96Q117.42 15.29 117.01 14.91Q116.59 14.54 115.81 14.54L115.81 14.54Q115.08 14.54 114.68 14.85Q114.28 15.16 114.28 15.71L114.28 15.71Q114.28 16.18 114.71 16.50Q115.14 16.81 116.14 17.10Q117.14 17.40 117.74 17.78Q118.34 18.16 118.63 18.65Q118.91 19.13 118.91 19.79L118.91 19.79Q118.91 20.86 118.09 21.49Q117.27 22.12 115.87 22.12L115.87 22.12Q114.95 22.12 114.17 21.77Q113.39 21.43 112.96 20.83Q112.53 20.22 112.53 19.42ZM128.77 22L123.20 22L123.20 13.47L128.73 13.47L128.73 14.66L124.68 14.66L124.68 17.02L128.18 17.02L128.18 18.19L124.68 18.19L124.68 20.82L128.77 20.82L128.77 22ZM133.12 21.85Q132.89 21.63 132.89 21.29Q132.89 20.95 133.11 20.73Q133.33 20.50 133.72 20.50L133.72 20.50Q134.12 20.50 134.33 20.73Q134.55 20.95 134.55 21.29L134.55 21.29Q134.55 21.63 134.33 21.84Q134.12 22.06 133.72 22.06L133.72 22.06Q133.34 22.06 133.12 21.85ZM139.04 18.19L139.04 18.19L139.04 17.39Q139.04 16.19 139.47 15.27Q139.89 14.35 140.69 13.85Q141.49 13.35 142.54 13.35L142.54 13.35Q143.96 13.35 144.82 14.12Q145.68 14.89 145.82 16.29L145.82 16.29L144.34 16.29Q144.24 15.37 143.81 14.96Q143.38 14.55 142.54 14.55L142.54 14.55Q141.58 14.55 141.06 15.26Q140.54 15.96 140.53 17.33L140.53 17.33L140.53 18.09Q140.53 19.47 141.02 20.20Q141.52 20.92 142.47 20.92L142.47 20.92Q143.35 20.92 143.79 20.53Q144.22 20.14 144.34 19.22L144.34 19.22L145.82 19.22Q145.69 20.59 144.81 21.35Q143.93 22.12 142.47 22.12L142.47 22.12Q141.45 22.12 140.68 21.63Q139.90 21.15 139.48 20.26Q139.06 19.37 139.04 18.19ZM149.86 18.00L149.86 18.00L149.86 17.52Q149.86 16.28 150.30 15.32Q150.75 14.37 151.55 13.86Q152.36 13.35 153.40 13.35Q154.44 13.35 155.25 13.85Q156.06 14.35 156.49 15.29Q156.93 16.23 156.94 17.48L156.94 17.48L156.94 17.96Q156.94 19.21 156.51 20.16Q156.07 21.10 155.27 21.61Q154.46 22.12 153.41 22.12L153.41 22.12Q152.38 22.12 151.56 21.61Q150.75 21.10 150.31 20.17Q149.87 19.23 149.86 18.00ZM151.34 17.46L151.34 17.96Q151.34 19.36 151.89 20.13Q152.44 20.90 153.41 20.90L153.41 20.90Q154.40 20.90 154.93 20.15Q155.46 19.40 155.46 17.96L155.46 17.96L155.46 17.51Q155.46 16.09 154.92 15.34Q154.39 14.58 153.40 14.58L153.40 14.58Q152.44 14.58 151.90 15.33Q151.36 16.09 151.34 17.46L151.34 17.46ZM162.88 22L161.40 22L161.40 13.47L163.33 13.47L165.79 20.01L168.24 13.47L170.16 13.47L170.16 22L168.68 22L168.68 19.19L168.83 15.43L166.31 22L165.25 22L162.73 15.43L162.88 19.19L162.88 22Z" fill="#22272E"/><path class="svg__text" d="" fill="#FFFFFF" x="194.94"/></svg>